<svg width="287" height="287" viewBox="0 0 287 287" fill="none" xmlns="http://www.w3.org/2000/svg">
<g clip-path="url(#clip0_7424_2678)">
<path d="M287 143.5C287 64.2471 222.753 0 143.5 0C64.2471 0 0 64.2471 0 143.5C0 222.753 64.2471 287 143.5 287C222.753 287 287 222.753 287 143.5Z" fill="#FD1669"/>
<path d="M111.65 95.6667C138.058 95.6667 159.467 88.5284 159.467 79.7223C159.467 70.9164 138.058 63.7778 111.65 63.7778C85.242 63.7778 63.8342 70.9164 63.8342 79.7223C63.8342 88.5284 85.242 95.6667 111.65 95.6667Z" stroke="white" stroke-width="11.9583" stroke-linecap="round"/>
<path d="M63.7778 79.7222V111.784V143.846C63.7778 149.458 73.1775 156.517 96.7216 159.444M64.6335 115.977C74.2406 124.443 91.3691 128.035 109.674 128.035M159.41 80.6892V96.7508" stroke="white" stroke-width="11.9583" stroke-linecap="round" stroke-linejoin="round"/>
<path d="M218.072 167.417C218.072 139.442 195.393 116.763 167.417 116.763C139.442 116.763 116.763 139.442 116.763 167.417C116.763 195.393 139.442 218.072 167.417 218.072C195.393 218.072 218.072 195.393 218.072 167.417Z" stroke="white" stroke-width="10.3026"/>
<path d="M167.417 208.735L131.738 188.239V146.594L167.417 126.098L203.097 146.594V188.239L167.417 208.735ZM167.417 195.938L192.144 181.407V153.426L167.417 138.786L142.691 153.426V181.407L167.417 195.938ZM167.309 188.13C163.405 188.13 159.862 187.19 156.681 185.311C153.5 183.431 150.97 180.9 149.09 177.719C147.21 174.465 146.27 170.923 146.27 167.091C146.27 163.259 147.21 159.752 149.09 156.571C150.97 153.391 153.5 150.86 156.681 148.98C159.862 147.028 163.405 146.052 167.309 146.052C171.141 146.052 174.647 147.028 177.828 148.98C181.01 150.86 183.54 153.391 185.42 156.571C187.372 159.752 188.347 163.259 188.347 167.091C188.347 170.923 187.408 174.429 185.528 177.61C183.649 180.792 181.118 183.358 177.937 185.311C174.756 187.19 171.213 188.13 167.309 188.13ZM167.309 178.804C169.478 178.804 171.43 178.262 173.165 177.176C174.9 176.092 176.31 174.683 177.394 172.947C178.479 171.14 179.022 169.188 179.022 167.091C179.022 164.922 178.479 162.97 177.394 161.234C176.31 159.5 174.9 158.126 173.165 157.114C171.43 156.029 169.478 155.487 167.309 155.487C165.212 155.487 163.26 156.029 161.452 157.114C159.718 158.126 158.308 159.5 157.223 161.234C156.139 162.97 155.597 164.922 155.597 167.091C155.597 169.188 156.139 171.14 157.223 172.947C158.308 174.683 159.718 176.092 161.452 177.176C163.26 178.262 165.212 178.804 167.309 178.804Z" fill="white"/>
</g>
<defs>
<clipPath id="clip0_7424_2678">
<rect width="287" height="287" fill="white"/>
</clipPath>
</defs>
</svg>
