<svg width="36" height="36" viewBox="0 0 36 36" fill="none" xmlns="http://www.w3.org/2000/svg">
<rect width="36" height="36" rx="18" fill="#FD1669"/>
<path d="M14.005 12C17.3175 12 20.0029 11.1046 20.0029 10C20.0029 8.89543 17.3175 8 14.005 8C10.6925 8 8.0072 8.89543 8.0072 10C8.0072 11.1046 10.6925 12 14.005 12Z" stroke="white" stroke-width="1.5" stroke-linecap="round"/>
<path d="M7.99988 10V14.0217V18.0434C7.99988 18.7473 9.17893 19.6328 12.1322 20M8.10721 14.5477C9.31228 15.6096 11.4608 16.0602 13.7569 16.0602M19.9955 10.1213V12.136" stroke="white" stroke-width="1.5" stroke-linecap="round" stroke-linejoin="round"/>
<rect x="14.6462" y="14.6462" width="12.7077" height="12.7077" rx="6.35385" stroke="white" stroke-width="1.29231"/>
<path d="M21.0001 26.1829L16.5247 23.6119V18.3882L21.0001 15.8172L25.4756 18.3882V23.6119L21.0001 26.1829ZM21.0001 24.5777L24.1017 22.7549V19.2452L21.0001 17.4088L17.8986 19.2452V22.7549L21.0001 24.5777ZM20.9865 23.5983C20.4968 23.5983 20.0524 23.4804 19.6534 23.2446C19.2544 23.0088 18.937 22.6914 18.7012 22.2923C18.4654 21.8842 18.3475 21.4399 18.3475 20.9592C18.3475 20.4786 18.4654 20.0387 18.7012 19.6397C18.937 19.2407 19.2544 18.9233 19.6534 18.6875C20.0524 18.4426 20.4968 18.3202 20.9865 18.3202C21.4672 18.3202 21.907 18.4426 22.306 18.6875C22.7051 18.9233 23.0225 19.2407 23.2583 19.6397C23.5031 20.0387 23.6255 20.4786 23.6255 20.9592C23.6255 21.4399 23.5077 21.8797 23.2719 22.2787C23.0361 22.6778 22.7187 22.9997 22.3196 23.2446C21.9206 23.4804 21.4762 23.5983 20.9865 23.5983ZM20.9865 22.4284C21.2586 22.4284 21.5034 22.3604 21.7211 22.2243C21.9387 22.0883 22.1156 21.9115 22.2516 21.6938C22.3877 21.4671 22.4557 21.2222 22.4557 20.9592C22.4557 20.6872 22.3877 20.4423 22.2516 20.2246C22.1156 20.007 21.9387 19.8347 21.7211 19.7077C21.5034 19.5717 21.2586 19.5037 20.9865 19.5037C20.7235 19.5037 20.4787 19.5717 20.2519 19.7077C20.0343 19.8347 19.8575 20.007 19.7214 20.2246C19.5854 20.4423 19.5174 20.6872 19.5174 20.9592C19.5174 21.2222 19.5854 21.4671 19.7214 21.6938C19.8575 21.9115 20.0343 22.0883 20.2519 22.2243C20.4787 22.3604 20.7235 22.4284 20.9865 22.4284Z" fill="white"/>
</svg>
