<svg width="72" height="38" viewBox="0 0 72 38" fill="none" xmlns="http://www.w3.org/2000/svg">
<path d="M12.9252 3.09235e-06L29.8676 37.8302L17.7467 37.8302C16.6489 37.8302 15.6536 37.1854 15.2049 36.1835L0.757101 3.92339C-0.0680678 2.08089 1.28004 2.95348e-06 3.29888 2.97756e-06L12.9252 3.09235e-06Z" fill="#1A1A1A"/>
<path d="M32.6526 37.8302L15.9424 3.12833e-06L29.8676 3.29439e-06C32.1017 5.38636 34.0195 10.3428 35.8268 14.8536C38.1324 20.6079 40.2584 25.6369 42.6324 29.9076C43.2235 30.9711 43.83 31.9875 44.4585 32.9564C45.6179 34.7438 46.8521 36.3694 48.2025 37.8302L32.6526 37.8302Z" fill="#1A1A1A"/>
<path d="M56.7167 36.4377C56.3375 37.2849 55.496 37.8302 54.5678 37.8302L48.2025 37.8302C46.8521 36.3694 45.6179 34.7438 44.4585 32.9564L48.3795 24.1371L49.5371 21.5334L59.1106 3.64311e-06L68.7897 3.75853e-06C70.908 3.78379e-06 72.2509 2.27112 71.23 4.12722L70.947 4.64175L57.3391 35.047L56.7167 36.4377V36.4377Z" fill="#4C4C4C"/>
<path d="M42.6324 3.4466e-06L55.3972 3.59882e-06L47.6222 18.2167L46.8783 19.9595L42.6324 29.9076C40.2584 25.6369 38.1324 20.6079 35.8268 14.8536L40.1866 5.33801L42.6324 3.4466e-06Z" fill="#4C4C4C"/>
</svg>
